<?xml version="1.0" encoding="utf-8"?>
<!-- Generator: Adobe Illustrator 22.0.1, SVG Export Plug-In . SVG Version: 6.00 Build 0)  -->
<svg version="1.1" id="Layer_1" xmlns="http://www.w3.org/2000/svg" xmlns:xlink="http://www.w3.org/1999/xlink" x="0px" y="0px"
	 viewBox="0 0 269 57" style="enable-background:new 0 0 269 57;" xml:space="preserve">
<style type="text/css">
	.st0{fill:#FFFFFF;}
</style>
<g>
	<path class="st0" d="M29.5,51.2h7.4V37c-0.6,0.6-4.7,4.1-7.4,5.4V51.2z"/>
	<path class="st0" d="M54.2,14v12.9c-2.7-1.3-5.7-2-8.9-2c-3,0-5.9,0.7-8.5,1.8V14h-7.4v18.1c-0.4,0.3-0.7,0.5-0.7,0.5
		c-2.2,1.6-5,2.6-7.9,2.6c-7.5,0-13.5-6.1-13.5-13.5S13.5,8.1,21,8.1c2.7,0,5.1,0.8,7.2,2.1V2C26,1.2,23.5,0.7,21,0.7
		C9.5,0.7,0.1,10.1,0.1,21.6S9.4,42.5,21,42.5c2.8,0,5.1-0.5,7.9-1.6c0.2-0.1,0.4-0.2,0.7-0.3c2.6-1.3,6.7-4.9,7.4-5.4
		c0.1,0,0.1-0.1,0.1-0.1c2.3-1.8,5.2-2.9,8.4-2.9c3.4,0,6.5,1.3,8.9,3.3v15.6h7.4V14H54.2z"/>
	<path class="st0" d="M13.8,23.1c0.1-0.3,0-0.6,0-0.9c0-0.7-0.1-1.3-0.2-2c-0.2-1.6-0.2-3.2,0.7-4.6c0.2-0.3,0.4-0.6,0.7-0.9
		c0,0,0,0,0.1,0c1-1,2.5-1.6,4.2-1.7c0.5,0,1.3,0,2.2,0.3c0.7,0.2,1.3,0.4,2,0.8c0.3,0.1,0.6,0.4,0.8,0.5c0.3,0.2,0.5,0.4,0.7,0.7
		c0.4,0.6,0.7,1.5,0.3,2.3l-0.1,0.2L25.1,18v-0.4c0,0.1-0.2,0.4-0.3,0.4l0,0c0,0.2-0.1,0.3-0.1,0.4c-0.1,0.3-0.2,0.4-0.3,0.7v0.1
		c0.3,0,0.3-0.2,0.3-0.1s-0.2,0.2-0.3,0.2c0,0.5,0.5,1.1,0.6,1.2c0.2,0.2,0.4,0.4,0.5,0.5c0.2,0.3-0.4,0.7-0.5,0.8
		c0.1,0.2,0.2,0.2,0.2,0.4c0.1,0.2-0.4,0.3-0.3,0.4s0.1,0.4,0,0.5c-0.4,0.3-0.3,0.4-0.2,0.9c0.1,0.6-0.2,0.8-0.7,0.9
		c-0.4,0.1-1.5-0.3-1.9-0.1l0,0c-0.8,0.6-1.5,1.9,0.7,5c0.2,0.2,0.8,0.9,0.4,0.9c-1.6,0-4.2-3.4-7.9-1.2c-0.5,0.3,1.6-2.7,2-4.3
		c-0.3,0-0.6-0.2-1-0.5c0,0.2,0.2,0.3,0.3,0.5c0,0-0.1,0-0.2,0s-0.1,0-0.2,0c-0.4,0-0.9-0.1-1.3-0.3c-0.2-0.1-0.3-0.4-0.4-0.6
		c0-0.1-0.1-0.4-0.1-0.6c0,0.1-0.1,0.3-0.3,0.4c-0.2,0.1-0.4,0.2-0.7,0.1C13.6,23.9,13.7,23.5,13.8,23.1z"/>
	<path class="st0" d="M84.7,25.6c0.3-0.5,0.6-0.9,1.3-0.9s1.5,0.6,1.5,1.4c0,0.3,0,0.5-0.2,0.8c-0.9,2.2-3.3,3.5-5.8,3.5
		c-3.7,0-6.3-2.7-6.6-6.2c-0.1-1.2-0.1-2.4,0-3.5c0.3-3.5,2.9-6.3,6.6-6.3c2.5,0,4.8,1.3,5.8,3.5c0.1,0.4,0.2,0.6,0.2,0.8
		c0,0.8-0.8,1.4-1.5,1.4s-1.1-0.4-1.3-0.9c-0.6-1.2-1.8-1.9-3.1-1.9c-2.1,0-3.5,1.6-3.6,3.7c-0.1,0.9-0.1,1.9,0,2.8
		c0.2,2.2,1.5,3.7,3.6,3.7C83,27.6,84.1,26.8,84.7,25.6z M93.3,19.1c0.5-0.4,1.6-0.9,2.8-0.9c2.8,0,4.4,1.7,4.4,4.8v5.7
		c0,0.9-0.6,1.6-1.5,1.6c-0.8,0-1.5-0.7-1.5-1.6v-5.5c0-1.3-0.8-2.1-2-2.1c-0.9,0-1.8,0.4-2.3,0.9v6.7c0,0.8-0.6,1.5-1.5,1.5
		c-0.8,0-1.5-0.7-1.5-1.5V15.9c0-0.9,0.6-1.5,1.5-1.5c0.8,0,1.5,0.7,1.5,1.5v3.2H93.3z M105.1,17.1c-0.9,0-1.6-0.7-1.6-1.6
		s0.7-1.6,1.6-1.6s1.6,0.7,1.6,1.6S106,17.1,105.1,17.1z M106.6,19.9v8.9c0,0.8-0.6,1.5-1.5,1.5c-0.8,0-1.5-0.7-1.5-1.5v-8.9
		c0-0.9,0.6-1.5,1.5-1.5C106,18.3,106.6,19,106.6,19.9z M112.8,16v12.8c0,0.8-0.6,1.5-1.5,1.5c-0.8,0-1.5-0.7-1.5-1.5V16
		c0-0.9,0.6-1.5,1.5-1.5C112.2,14.4,112.8,15.1,112.8,16z M120.5,18.3c0.9,0,1.9,0.3,2.6,0.6V16c0-0.9,0.7-1.5,1.5-1.5
		c0.8,0,1.5,0.7,1.5,1.5v12c0,0.5-0.1,0.8-0.5,1c-0.6,0.4-2.4,1.4-4.6,1.4c-3.1,0-5-1.9-5.2-4.6c-0.1-0.8-0.1-2.2,0-3
		C116,20,117.6,18.3,120.5,18.3z M121,27.6c0.8,0,1.8-0.4,2.1-0.7v-5.2c-0.4-0.2-1.3-0.6-2.3-0.6c-1.4,0-2.1,0.8-2.2,2.1
		c0,0.5,0,1.5,0,2.1C118.7,26.8,119.6,27.6,121,27.6z M136.3,20c0,0.6-0.5,1.4-1.4,1.4c-0.5,0-1-0.2-1.7-0.2s-1.1,0.4-1.1,1.4v6.2
		c0,0.8-0.6,1.5-1.5,1.5c-0.8,0-1.5-0.7-1.5-1.5V22c0-2.3,1.3-3.8,3.9-3.8c0.7,0,1.5,0.1,1.9,0.2C135.8,18.7,136.3,19.2,136.3,20z
		 M147.8,23.9c0,0.9-0.4,1.5-1.5,1.5h-5.9v0.2c0,1.4,1.1,2.1,2.5,2.1c0.8,0,1.6-0.2,2.4-0.5c1.2-0.4,1.9,0.4,1.9,1.2
		c0,0.4-0.2,0.9-0.7,1.2c-0.8,0.5-2.2,0.8-3.6,0.8c-3,0-5.1-1.9-5.3-4.7c-0.1-0.9,0-2.1,0-2.8c0.3-2.9,2.3-4.7,5.2-4.7
		c3,0,5,2,5,5.1V23.9z M144.7,23.3c0.2,0,0.2-0.1,0.2-0.3c0.1-1.3-0.8-2.2-2.2-2.2c-1.6,0-2.3,1-2.3,2.5H144.7z M160.6,28.8
		c0,0.8-0.6,1.5-1.5,1.5c-0.8,0-1.5-0.7-1.5-1.5v-5.6c0-1.4-1-2.1-2.1-2.1c-0.9,0-1.7,0.3-2.2,0.5v7.1c0,0.8-0.6,1.5-1.5,1.5
		c-0.8,0-1.5-0.7-1.5-1.5v-8.2c0-0.5,0.2-0.8,0.5-1.1c0.7-0.5,2.3-1.2,4.7-1.2c3.3,0,5,1.7,5,4.8v5.8H160.6z M165.5,17.1
		c0,0.8-0.1,1.8-0.6,2.6c-0.3,0.5-0.8,0.9-1.4,0.9c-0.7,0-1.2-0.6-1.2-1.2c0-0.7,0.6-1,0.6-2.2v-1.3c0-0.7,0.6-1.3,1.3-1.3
		s1.3,0.6,1.3,1.3V17.1z M175.7,26.6c0,2.5-2,3.8-4.6,3.8c-2.1,0-3.4-0.6-4.2-1.3c-0.5-0.4-0.7-1.3-0.3-1.8c0.4-0.6,1.2-0.7,1.9-0.3
		s1.6,0.7,2.6,0.7c1.1,0,1.7-0.4,1.7-1c0-0.5-0.4-0.8-1.3-1c-0.8-0.2-0.8-0.2-1.6-0.4c-1.8-0.5-3.2-1.5-3.2-3.4
		c0-2.4,1.9-3.7,4.5-3.7c1.4,0,2.8,0.4,3.6,1c0.6,0.5,0.6,1.4,0.1,2c-0.4,0.5-1.2,0.5-1.9,0.2c-0.6-0.3-1.3-0.5-1.9-0.5
		c-1.1,0-1.6,0.4-1.6,0.9s0.3,0.8,1.3,1l1.6,0.4C174.6,23.7,175.7,24.8,175.7,26.6z M183.7,16.1c0-0.9,0.7-1.5,1.5-1.5
		c0.9,0,1.5,0.7,1.5,1.5V21h7v-4.9c0-0.9,0.7-1.5,1.5-1.5c0.9,0,1.5,0.7,1.5,1.5v12.6c0,0.9-0.6,1.6-1.5,1.6c-0.8,0-1.5-0.7-1.5-1.6
		v-4.8h-7v4.8c0,0.9-0.6,1.5-1.5,1.5c-0.8,0-1.5-0.7-1.5-1.5V16.1z M204.9,30.4c-2.9,0-5.1-1.8-5.3-4.5c-0.1-0.9-0.1-2.3,0-3.1
		c0.2-2.6,2.4-4.5,5.3-4.5c2.9,0,5,1.8,5.3,4.5c0.1,0.9,0.1,2.2,0,3.1C210,28.5,207.9,30.4,204.9,30.4z M207.3,23.2
		c-0.1-1.3-0.9-2.1-2.3-2.1s-2.2,0.9-2.4,2.1c0,0.6,0,1.6,0,2.2c0.1,1.3,1,2.1,2.4,2.1s2.2-0.9,2.3-2.1
		C207.3,24.9,207.3,23.8,207.3,23.2z M221.7,26.6c0,2.5-2,3.8-4.6,3.8c-2.1,0-3.4-0.6-4.2-1.3c-0.5-0.4-0.7-1.3-0.3-1.8
		c0.4-0.6,1.2-0.7,1.9-0.3s1.6,0.7,2.6,0.7c1.1,0,1.7-0.4,1.7-1c0-0.5-0.4-0.8-1.3-1c-0.8-0.2-0.8-0.2-1.6-0.4
		c-1.8-0.5-3.2-1.5-3.2-3.4c0-2.4,1.9-3.7,4.5-3.7c1.4,0,2.8,0.4,3.6,1c0.6,0.5,0.6,1.4,0.1,2c-0.4,0.5-1.2,0.5-1.9,0.2
		c-0.6-0.3-1.3-0.5-1.9-0.5c-1.1,0-1.6,0.4-1.6,0.9s0.3,0.8,1.3,1l1.6,0.4C220.6,23.7,221.7,24.8,221.7,26.6z M229.5,30.4
		c-1,0-1.7-0.2-2.5-0.6v3.3c0,0.9-0.7,1.5-1.5,1.5s-1.5-0.7-1.5-1.5V20.5c0-0.3,0.1-0.6,0.4-0.7c0.7-0.5,2.5-1.4,4.8-1.4
		c3,0,4.9,1.9,5.2,4.6c0.1,0.8,0.1,2.2,0,3C234.2,28.6,232.4,30.4,229.5,30.4z M229.2,21.1c-0.8,0-1.8,0.4-2.2,0.7V27
		c0.4,0.2,1.3,0.6,2.2,0.6c1.5,0,2.1-0.8,2.2-2.1c0-0.5,0-1.5,0-2.1C231.3,21.9,230.6,21.1,229.2,21.1z M238.8,17.1
		c-0.9,0-1.6-0.7-1.6-1.6s0.7-1.6,1.6-1.6c0.9,0,1.6,0.7,1.6,1.6S239.7,17.1,238.8,17.1z M240.3,19.9v8.9c0,0.8-0.6,1.5-1.5,1.5
		c-0.8,0-1.5-0.7-1.5-1.5v-8.9c0-0.9,0.6-1.5,1.5-1.5C239.6,18.3,240.3,19,240.3,19.9z M247.4,30.4c-2.7,0-4-1.9-4-4.3v-8.7
		c0-0.9,0.6-1.5,1.5-1.5c0.8,0,1.5,0.7,1.5,1.5v1.5h2.8c0.7,0,1.4,0.6,1.4,1.3c0,0.7-0.6,1.3-1.4,1.3h-2.8V26c0,1.1,0.5,1.6,1.4,1.6
		c0.5,0,1-0.1,1.4-0.2c1.1-0.3,1.8,0.4,1.8,1.3c0,0.5-0.2,1-0.9,1.3C249.3,30.3,248.3,30.4,247.4,30.4z M262.2,28.1
		c0,0.5-0.1,0.8-0.5,1c-0.6,0.4-2.2,1.2-4.6,1.2c-3.2,0-4.6-1.8-4.6-3.9c0-1.9,1.3-3.6,4.5-3.6c1,0,1.6,0.1,2.4,0.3v-0.6
		c0-1.1-0.6-1.7-2.1-1.7c-0.8,0-1.6,0.2-2.1,0.4c-1.3,0.4-2-0.2-2-1.1c0-0.5,0.2-1,1-1.3c0.6-0.3,1.9-0.6,3.2-0.6
		c3.1,0,4.9,1.4,4.9,4.5L262.2,28.1L262.2,28.1z M259.4,27.3v-2c-0.7-0.2-1.4-0.4-2.2-0.4c-1.2,0-1.9,0.6-1.9,1.4c0,1,0.8,1.5,2,1.5
		C258.5,27.8,259.1,27.5,259.4,27.3z M268.2,16v12.8c0,0.8-0.6,1.5-1.5,1.5c-0.8,0-1.5-0.7-1.5-1.5V16c0-0.9,0.6-1.5,1.5-1.5
		C267.5,14.4,268.2,15.1,268.2,16z M80.3,52.4c-2.9,0-5.1-1.8-5.3-4.5c0-0.9,0-2.2,0-3.1c0.2-2.6,2.4-4.5,5.3-4.5
		c2.9,0,5,1.8,5.3,4.5c0.1,0.9,0.1,2.2,0,3.1C85.3,50.5,83.2,52.4,80.3,52.4z M82.6,45.2c-0.1-1.3-0.9-2.1-2.3-2.1
		c-1.4,0-2.2,0.9-2.4,2.1c0,0.6,0,1.6,0,2.2c0.1,1.3,1,2.1,2.4,2.1c1.4,0,2.2-0.9,2.3-2.1C82.7,46.9,82.7,45.8,82.6,45.2z
		 M89.2,40.3c0-2.7,1.5-4.1,3.9-4.1c0.8,0,1.7,0.1,2.2,0.3c0.7,0.2,1.1,0.7,1.1,1.4c0,0.7-0.5,1.3-1.4,1.3c-0.5,0-1-0.2-1.7-0.2
		c-0.8,0-1.3,0.5-1.3,1.4v0.5h2.6c0.7,0,1.3,0.5,1.3,1.3c0,0.7-0.6,1.3-1.3,1.3H92v7.3c0,0.9-0.6,1.6-1.5,1.6
		c-0.8,0-1.5-0.7-1.5-1.6v-7.3h-0.5c-0.8,0-1.4-0.6-1.4-1.3c0-0.8,0.6-1.3,1.4-1.3H89v-0.6H89.2z M107.6,47.2v3.6
		c0,0.8-0.7,1.6-1.5,1.6c-0.8,0-1.5-0.7-1.5-1.6V38.6c0-1.1,0.7-2,2-2h4.4c2.9,0,5.4,1.9,5.4,5.2S114,47,110.8,47h-3.2V47.2z
		 M110.7,44.2c1.8,0,2.6-0.9,2.6-2.3c0-1.5-0.8-2.3-2.6-2.3h-3.2v4.6H110.7z M121.6,41.1c0.5-0.4,1.6-0.9,2.8-0.9
		c2.8,0,4.4,1.7,4.4,4.8v5.7c0,0.9-0.6,1.6-1.5,1.6c-0.8,0-1.5-0.7-1.5-1.6v-5.5c0-1.3-0.8-2.1-2-2.1c-0.9,0-1.8,0.4-2.3,0.9v6.7
		c0,0.8-0.6,1.5-1.5,1.5c-0.8,0-1.5-0.7-1.5-1.5V37.9c0-0.9,0.6-1.5,1.5-1.5c0.8,0,1.5,0.7,1.5,1.5L121.6,41.1L121.6,41.1z
		 M133.4,39.1c-0.9,0-1.6-0.7-1.6-1.6s0.7-1.6,1.6-1.6c0.9,0,1.6,0.7,1.6,1.6S134.3,39.1,133.4,39.1z M134.9,41.9v8.9
		c0,0.8-0.6,1.5-1.5,1.5c-0.8,0-1.5-0.7-1.5-1.5v-8.9c0-0.9,0.6-1.5,1.5-1.5C134.2,40.4,134.9,41,134.9,41.9z M141.1,38v12.8
		c0,0.8-0.6,1.5-1.5,1.5c-0.8,0-1.5-0.7-1.5-1.5V38c0-0.9,0.6-1.5,1.5-1.5C140.5,36.4,141.1,37.1,141.1,38z M153.6,50.1
		c0,0.5-0.1,0.8-0.5,1c-0.6,0.4-2.2,1.2-4.6,1.2c-3.2,0-4.6-1.8-4.6-3.9c0-1.9,1.3-3.6,4.5-3.6c1,0,1.6,0.1,2.4,0.3v-0.6
		c0-1.1-0.6-1.7-2.1-1.7c-0.8,0-1.6,0.2-2.1,0.4c-1.3,0.4-2-0.2-2-1.1c0-0.5,0.2-1,1-1.3c0.6-0.3,1.9-0.6,3.2-0.6
		c3.1,0,4.9,1.4,4.9,4.5L153.6,50.1L153.6,50.1z M150.7,49.3v-2c-0.7-0.2-1.4-0.4-2.2-0.4c-1.2,0-1.9,0.6-1.9,1.4c0,1,0.8,1.5,2,1.5
		C149.8,49.9,150.5,49.5,150.7,49.3z M161.1,40.3c0.9,0,1.9,0.3,2.6,0.6V38c0-0.9,0.7-1.5,1.5-1.5s1.5,0.7,1.5,1.5v12
		c0,0.5-0.1,0.8-0.5,1c-0.6,0.4-2.4,1.4-4.6,1.4c-3.1,0-5-1.9-5.2-4.6c-0.1-0.8-0.1-2.2,0-3C156.5,42,158.2,40.3,161.1,40.3z
		 M161.5,49.6c0.8,0,1.8-0.4,2.1-0.7v-5.2c-0.4-0.2-1.3-0.6-2.3-0.6c-1.4,0-2.1,0.8-2.2,2.1c0,0.5,0,1.5,0,2.1
		C159.3,48.8,160.1,49.6,161.5,49.6z M179.8,45.9c0,0.9-0.4,1.5-1.5,1.5h-5.9v0.2c0,1.4,1.1,2.1,2.5,2.1c0.8,0,1.6-0.2,2.4-0.5
		c1.2-0.4,1.9,0.4,1.9,1.2c0,0.4-0.2,0.9-0.7,1.2c-0.8,0.5-2.2,0.8-3.6,0.8c-3,0-5.1-1.9-5.3-4.7c-0.1-0.9,0-2.1,0-2.8
		c0.3-2.9,2.3-4.7,5.2-4.7c3,0,5,2,5,5.1V45.9z M176.7,45.3c0.2,0,0.2-0.1,0.2-0.3c0.1-1.3-0.8-2.2-2.2-2.2c-1.6,0-2.3,1-2.3,2.5
		H176.7z M185.4,38v12.8c0,0.8-0.6,1.5-1.5,1.5c-0.8,0-1.5-0.7-1.5-1.5V38c0-0.9,0.6-1.5,1.5-1.5C184.7,36.4,185.4,37.1,185.4,38z
		 M193.9,52.4c-1,0-1.7-0.2-2.5-0.6v3.3c0,0.9-0.7,1.5-1.5,1.5c-0.8,0-1.5-0.7-1.5-1.5V42.5c0-0.3,0.1-0.6,0.4-0.7
		c0.7-0.5,2.5-1.4,4.8-1.4c3,0,4.9,1.9,5.2,4.6c0.1,0.8,0.1,2.2,0,3C198.6,50.6,196.9,52.4,193.9,52.4z M193.6,43.1
		c-0.8,0-1.8,0.4-2.2,0.7V49c0.4,0.2,1.3,0.6,2.2,0.6c1.5,0,2.1-0.8,2.2-2.1c0-0.5,0-1.5,0-2.1C195.8,43.9,195,43.1,193.6,43.1z
		 M204.6,41.1c0.5-0.4,1.6-0.9,2.8-0.9c2.8,0,4.4,1.7,4.4,4.8v5.7c0,0.9-0.6,1.6-1.5,1.6c-0.8,0-1.5-0.7-1.5-1.6v-5.5
		c0-1.3-0.8-2.1-2-2.1c-0.9,0-1.8,0.4-2.3,0.9v6.7c0,0.8-0.6,1.5-1.5,1.5c-0.8,0-1.5-0.7-1.5-1.5V37.9c0-0.9,0.6-1.5,1.5-1.5
		c0.8,0,1.5,0.7,1.5,1.5v3.2H204.6z M216.5,39.1c-0.9,0-1.6-0.7-1.6-1.6s0.7-1.6,1.6-1.6s1.6,0.7,1.6,1.6
		C218,38.4,217.3,39.1,216.5,39.1z M217.9,41.9v8.9c0,0.8-0.6,1.5-1.5,1.5c-0.8,0-1.5-0.7-1.5-1.5v-8.9c0-0.9,0.6-1.5,1.5-1.5
		C217.3,40.4,217.9,41,217.9,41.9z M230.5,50.1c0,0.5-0.1,0.8-0.5,1c-0.6,0.4-2.2,1.2-4.6,1.2c-3.2,0-4.6-1.8-4.6-3.9
		c0-1.9,1.3-3.6,4.5-3.6c1,0,1.6,0.1,2.4,0.3v-0.6c0-1.1-0.6-1.7-2.1-1.7c-0.8,0-1.6,0.2-2.1,0.4c-1.3,0.4-2-0.2-2-1.1
		c0-0.5,0.2-1,1-1.3c0.6-0.3,1.9-0.6,3.2-0.6c3.1,0,4.9,1.4,4.9,4.5v5.4H230.5z M227.6,49.3v-2c-0.7-0.2-1.4-0.4-2.2-0.4
		c-1.2,0-1.9,0.6-1.9,1.4c0,1,0.8,1.5,2,1.5C226.7,49.9,227.4,49.5,227.6,49.3z M233.8,44.3c-1.1,0-1.9-0.8-1.9-1.7
		c0-0.2,0-0.4,0-0.6c0-1,0.9-1.7,1.9-1.7s1.9,0.7,1.9,1.7c0,0.2,0,0.4,0,0.6C235.7,43.6,234.8,44.3,233.8,44.3z M235.3,42
		c-0.1-0.8-0.7-1.4-1.5-1.4s-1.4,0.5-1.5,1.4c0,0.2,0,0.4,0,0.6c0.1,0.8,0.7,1.4,1.5,1.4s1.4-0.5,1.5-1.4
		C235.3,42.4,235.3,42.2,235.3,42z M233.8,42.6c0-0.1-0.1-0.1-0.1-0.1h-0.3v0.6c0,0.1-0.1,0.2-0.2,0.2c-0.1,0-0.2-0.1-0.2-0.2v-1.7
		c0-0.1,0.1-0.2,0.3-0.2h0.7c0.4,0,0.8,0.2,0.8,0.6c0,0.3-0.2,0.5-0.5,0.6l0.5,0.6l0.1,0.1c0,0.1-0.1,0.2-0.2,0.2
		c-0.1,0-0.1,0-0.1-0.1L233.8,42.6z M233.9,42.2c0.3,0,0.4-0.1,0.4-0.3c0-0.2-0.1-0.3-0.4-0.3h-0.5v0.6H233.9z"/>
</g>
</svg>
